<svg width="23" height="23" fill="none" xmlns="http://www.w3.org/2000/svg"><path d="M16.875 13.751c-.25-.125-1.563-.875-1.813-.938-.25-.125-.437-.125-.624.125a16.4 16.4 0 01-.876 1c-.187.188-.312.188-.562.063-.25-.125-1.125-.438-2.125-1.438-.75-.75-1.313-1.625-1.438-1.937-.124-.25 0-.438.126-.563.124-.125.25-.312.437-.437.188-.125.188-.25.313-.438.124-.187.062-.312 0-.5-.063-.187-.563-1.5-.75-2.062-.188-.563-.438-.438-.563-.5-.188 0-.313-.063-.5-.063-.25 0-.563.125-.75.313-.25.25-1 .875-1 2.187 0 1.313.875 2.688 1 2.813.125.188 1.75 3.063 4.438 4.25 2.687 1.188 2.687.813 3.187.813S17 15.813 17.25 15.25c.25-.625.25-1.188.188-1.25-.125 0-.313-.063-.563-.25zm-5 6.438c-1.75 0-3.375-.5-4.813-1.438l-3.375 1.063 1.126-3.25c-1.063-1.5-1.688-3.313-1.688-5.188a8.802 8.802 0 018.813-8.813c4.874 0 8.75 3.938 8.75 8.813a8.802 8.802 0 01-8.813 8.813zm0-19.376c-5.813 0-10.563 4.75-10.563 10.563 0 1.938.5 3.813 1.5 5.438L.875 22.5l5.875-1.875c1.563.875 3.313 1.313 5.125 1.313 5.813 0 10.563-4.75 10.563-10.563C22.438 5.563 17.75.813 11.874.813z" fill="#fff"/></svg>