<svg width="23" height="19" viewBox="0 0 23 19" fill="none" xmlns="http://www.w3.org/2000/svg">
<path fill-rule="evenodd" clip-rule="evenodd" d="M2.05321 7.7889L13.7168 2.7649C19.2711 0.454701 20.4251 0.0534209 21.1774 0.0401809C21.3429 0.0372609 21.7128 0.0782604 21.9524 0.2727C22.1548 0.436861 22.2104 0.658701 22.2371 0.814301C22.2637 0.969901 22.2969 1.32458 22.2705 1.60166C21.9695 4.76406 20.6671 12.4386 20.0046 15.9806C19.7242 17.4794 19.1726 17.9819 18.6378 18.0311C17.4763 18.138 16.5944 17.2635 15.4694 16.5261L11.0061 13.528C9.03145 12.2268 10.3115 11.5116 11.4369 10.3428C11.7314 10.0368 16.8487 5.38226 16.9477 4.96002C16.9597 4.90722 16.9716 4.71042 16.8547 4.60642C16.7377 4.50242 16.565 4.53842 16.4405 4.5663C16.264 4.60638 13.452 6.46502 8.00445 10.1423C7.20625 10.6904 6.48325 10.9575 5.83553 10.9435C5.12141 10.9281 3.74777 10.5397 2.72661 10.2078C1.47408 9.80066 0.478605 9.58538 0.565325 8.89394C0.610445 8.53382 1.10645 8.16546 2.05321 7.7889Z" fill="white"/>
</svg>
