<?xml version="1.0" encoding="utf-8"?><svg viewBox="0 0 236 236" xmlns="http://www.w3.org/2000/svg" xmlns:xlink="http://www.w3.org/1999/xlink"><style>:root>svg{display:none}:root>svg:target{display:block}</style><svg fill="none" viewBox="0 0 23 19" id="contacts--telegram" xmlns="http://www.w3.org/2000/svg"><path fill-rule="evenodd" clip-rule="evenodd" d="M2.053 7.789l11.664-5.024C19.27.455 20.425.053 21.177.04c.166-.003.536.038.775.233.203.164.258.386.285.541.027.156.06.51.034.788-.302 3.162-1.604 10.837-2.266 14.379-.28 1.498-.832 2-1.367 2.05-1.162.107-2.044-.767-3.169-1.505l-4.463-2.998c-1.975-1.301-.694-2.016.43-3.185.295-.306 5.413-4.96 5.512-5.383.012-.053.024-.25-.093-.354-.117-.104-.29-.068-.415-.04-.176.04-2.988 1.899-8.436 5.576-.798.548-1.52.816-2.168.802-.715-.016-2.088-.404-3.11-.736C1.475 9.8.48 9.585.567 8.894c.044-.36.54-.729 1.487-1.105z" fill="#fff"/></svg><svg fill="none" viewBox="0 0 23 23" id="contacts--whatsapp" xmlns="http://www.w3.org/2000/svg"><path d="M16.875 13.751c-.25-.125-1.563-.875-1.813-.938-.25-.125-.437-.125-.624.125-.188.25-.75.875-.876 1-.187.188-.312.188-.562.063-.25-.125-1.125-.438-2.125-1.438-.75-.75-1.313-1.625-1.438-1.937-.124-.25 0-.438.126-.563.124-.125.25-.312.437-.437.188-.125.188-.25.313-.438.124-.187.062-.312 0-.5-.063-.187-.563-1.5-.75-2.062-.188-.563-.438-.438-.563-.5-.188 0-.313-.063-.5-.063-.25 0-.563.125-.75.313-.25.25-1 .875-1 2.187 0 1.313.875 2.688 1 2.813.125.188 1.75 3.063 4.438 4.25 2.687 1.188 2.687.813 3.187.813S17 15.813 17.25 15.25c.25-.625.25-1.188.188-1.25-.125 0-.313-.063-.563-.25zm-5 6.438c-1.75 0-3.375-.5-4.813-1.438l-3.375 1.063 1.126-3.25c-1.063-1.5-1.688-3.313-1.688-5.188a8.802 8.802 0 018.813-8.813c4.874 0 8.75 3.938 8.75 8.813a8.802 8.802 0 01-8.813 8.813zm0-19.376c-5.813 0-10.563 4.75-10.563 10.563 0 1.938.5 3.813 1.5 5.438L.875 22.5l5.875-1.875c1.563.875 3.313 1.313 5.125 1.313 5.813 0 10.563-4.75 10.563-10.563C22.438 5.563 17.75.813 11.874.813z" fill="#fff"/></svg><svg fill="none" viewBox="0 0 25 25" id="favicon" xmlns="http://www.w3.org/2000/svg"><path d="M2 25h13.156C20.344 25 23 22.59 23 18v-.071c0-3.411-1.688-5.483-4.942-6.072v-.321c2.726-.536 4.15-2.357 4.15-5.322v-.089c0-4.036-2.48-6.125-7.334-6.125H2v25zm5.188-14.768V3.536h6.139c2.48 0 3.71 1.107 3.71 3.285v.072c0 2.214-1.23 3.34-3.71 3.34H7.188zm0 11.214v-7.964h6.297c2.726 0 4.08 1.322 4.08 3.91v.072c0 2.643-1.354 3.982-4.08 3.982H7.188z" fill="#ECECEC"/></svg><svg fill="none" viewBox="0 0 45 45" id="footer--ok" xmlns="http://www.w3.org/2000/svg"><path d="M19.279 14.986a3.359 3.359 0 106.718 0 3.359 3.359 0 00-6.718 0z" fill="#CACACA"/><path fill-rule="evenodd" clip-rule="evenodd" d="M22.5 45C34.926 45 45 34.926 45 22.5S34.926 0 22.5 0 0 10.074 0 22.5 10.074 45 22.5 45zm-7.988-30.014a8.125 8.125 0 1116.251 0 8.125 8.125 0 01-16.25 0zm16.3 12.305c-.103.083-2.053 1.623-5.306 2.286l4.91 4.866a2.21 2.21 0 11-3.122 3.127l-4.766-4.642-4.33 4.612a2.202 2.202 0 01-1.59.676 2.21 2.21 0 01-1.59-3.743l4.66-4.87c-3.344-.648-5.374-2.228-5.479-2.312a2.21 2.21 0 012.765-3.447c.02.016 2.143 1.61 5.564 1.613 3.42-.002 5.5-1.597 5.52-1.613a2.21 2.21 0 012.764 3.447z" fill="#CACACA"/></svg><svg fill="none" viewBox="0 0 45 45" id="footer--vk" xmlns="http://www.w3.org/2000/svg"><path d="M22.5 0C10.074 0 0 10.074 0 22.5S10.074 45 22.5 45 45 34.926 45 22.5 34.926 0 22.5 0zm11.413 24.933c1.049 1.025 2.158 1.989 3.1 3.119.417.5.81 1.017 1.11 1.598.427.83.04 1.739-.701 1.788l-4.61-.001c-1.19.098-2.138-.382-2.937-1.196-.637-.648-1.229-1.341-1.843-2.012-.25-.275-.515-.534-.83-.738-.628-.41-1.174-.284-1.534.373-.367.668-.451 1.408-.486 2.151-.05 1.087-.378 1.371-1.468 1.422-2.33.11-4.542-.244-6.597-1.419-1.813-1.036-3.216-2.499-4.439-4.155-2.38-3.228-4.204-6.77-5.843-10.415-.368-.821-.099-1.26.807-1.277 1.504-.03 3.009-.026 4.513-.002.613.01 1.018.36 1.253.938.813 2 1.81 3.904 3.059 5.669.332.47.672.938 1.156 1.27.534.367.94.245 1.193-.35.16-.38.23-.785.265-1.19.12-1.392.134-2.782-.073-4.167-.129-.867-.616-1.427-1.48-1.59-.44-.084-.376-.247-.162-.498.372-.435.72-.704 1.415-.704h5.208c.821.16 1.005.529 1.117 1.356l.004 5.787c-.01.32.16 1.269.735 1.478.46.152.765-.217 1.04-.509 1.249-1.325 2.139-2.89 2.936-4.508.351-.714.655-1.453.95-2.194.218-.547.56-.816 1.177-.807l5.015.006c.148 0 .298.001.444.027.846.144 1.077.508.816 1.332-.412 1.296-1.212 2.375-1.993 3.457-.838 1.158-1.732 2.276-2.561 3.44-.763 1.063-.702 1.598.244 2.521z" fill="#CACACA"/></svg><svg fill="none" viewBox="0 0 12 7" id="icons-sprite--arrow-down" xmlns="http://www.w3.org/2000/svg"><path d="M11 1L6 6 1 1" stroke="#fff"/></svg><svg fill="none" viewBox="0 0 7 12" id="icons-sprite--arrow-left" xmlns="http://www.w3.org/2000/svg"><path d="M6 11L1 6l5-5" stroke="#fff"/></svg><svg fill="none" viewBox="0 0 7 12" id="icons-sprite--arrow-right" xmlns="http://www.w3.org/2000/svg"><path d="M1 11l5-5-5-5" stroke="#fff"/></svg><svg fill="none" viewBox="0 0 12 7" id="icons-sprite--arrow-up" xmlns="http://www.w3.org/2000/svg"><path d="M11 6L6 1 1 6" stroke="#fff"/></svg><svg fill="none" viewBox="0 0 4 4" id="icons-sprite--checkbox" xmlns="http://www.w3.org/2000/svg"><circle cx="2" cy="2" r="2" fill="#C283F3"/></svg><svg fill="none" viewBox="0 0 23 23" id="icons-sprite--close" xmlns="http://www.w3.org/2000/svg"><path fill="#fff" d="M2.094 0L23 20.907l-2.09 2.091L.002 2.091z"/><path fill="#fff" d="M0 20.907L20.907 0l2.09 2.09L2.091 22.999z"/></svg><svg fill="none" viewBox="0 0 13 13" id="icons-sprite--enter" xmlns="http://www.w3.org/2000/svg"><path d="M5.12 9.093L6.14 10.11 9.75 6.5 6.139 2.889 5.12 3.907l1.863 1.87H0v1.445h6.984L5.12 9.092zM11.557 0H1.444C.643 0 0 .65 0 1.444v2.89h1.444v-2.89h10.112v10.112H1.444v-2.89H0v2.89C0 12.35.643 13 1.444 13h10.112C12.35 13 13 12.35 13 11.556V1.444C13 .65 12.35 0 11.556 0z" fill="#fff"/></svg><svg fill="none" viewBox="0 0 81 79" id="icons-sprite--hover" xmlns="http://www.w3.org/2000/svg"><path fill="#fff" d="M18.136 57.197L0 74.639 4.534 79 22.67 61.558z"/><path fill-rule="evenodd" clip-rule="evenodd" d="M44.27 65.77c-16.229 0-29.385-13.087-29.385-29.23 0-16.145 13.156-29.232 29.385-29.232 16.228 0 29.384 13.087 29.384 29.231 0 16.144-13.156 29.232-29.384 29.232zm0 7.309c-20.286 0-36.73-16.36-36.73-36.54S23.983 0 44.27 0C64.555 0 81 16.36 81 36.54S64.555 73.078 44.27 73.078z" fill="#fff"/><path d="M42 24v25h5.995V24H42z" fill="#fff"/><path d="M57.233 34h-25v5.995h25V34z" fill="#fff"/></svg><svg fill="none" viewBox="0 0 45 45" id="icons-sprite--ok" xmlns="http://www.w3.org/2000/svg"><path d="M19.279 14.986a3.359 3.359 0 106.718 0 3.359 3.359 0 00-6.718 0z" fill="#CACACA"/><path fill-rule="evenodd" clip-rule="evenodd" d="M22.5 45C34.926 45 45 34.926 45 22.5S34.926 0 22.5 0 0 10.074 0 22.5 10.074 45 22.5 45zm-7.988-30.014a8.125 8.125 0 1116.251 0 8.125 8.125 0 01-16.25 0zm16.3 12.305c-.103.083-2.053 1.623-5.306 2.286l4.91 4.866a2.21 2.21 0 11-3.122 3.127l-4.766-4.642-4.33 4.612a2.202 2.202 0 01-1.59.676 2.21 2.21 0 01-1.59-3.743l4.66-4.87c-3.344-.648-5.374-2.228-5.479-2.312a2.21 2.21 0 012.765-3.447c.02.016 2.143 1.61 5.564 1.613 3.42-.002 5.5-1.597 5.52-1.613a2.21 2.21 0 012.764 3.447z" fill="#CACACA"/></svg><svg fill="none" viewBox="0 0 2 28" id="icons-sprite--scroll" xmlns="http://www.w3.org/2000/svg"><path fill="#fff" d="M0 0h2v28H0z"/></svg><svg fill="none" viewBox="0 0 23 22" id="icons-sprite--search" xmlns="http://www.w3.org/2000/svg"><path fill="#fff" d="M4.938 15.653L0 20.427l1.234 1.194 4.938-4.774z"/><path fill-rule="evenodd" clip-rule="evenodd" d="M12.097 18c-4.567 0-8.1-3.677-8.1-8s3.533-8 8.1-8c4.566 0 8.1 3.677 8.1 8s-3.534 8-8.1 8zm0 2c-5.523 0-10-4.477-10-10s4.477-10 10-10c5.522 0 10 4.477 10 10s-4.478 10-10 10z" fill="#fff"/></svg><svg fill="none" viewBox="0 0 23 19" id="icons-sprite--telegram" xmlns="http://www.w3.org/2000/svg"><path fill-rule="evenodd" clip-rule="evenodd" d="M2.053 7.789l11.664-5.024C19.27.455 20.425.053 21.177.04c.166-.003.536.038.775.233.203.164.258.386.285.541.027.156.06.51.034.788-.302 3.162-1.604 10.837-2.266 14.379-.28 1.498-.832 2-1.367 2.05-1.162.107-2.044-.767-3.169-1.505l-4.463-2.998c-1.975-1.301-.694-2.016.43-3.185.295-.306 5.413-4.96 5.512-5.383.012-.053.024-.25-.093-.354-.117-.104-.29-.068-.415-.04-.176.04-2.988 1.899-8.436 5.576-.798.548-1.52.816-2.168.802-.715-.016-2.088-.404-3.11-.736C1.475 9.8.48 9.585.567 8.894c.044-.36.54-.729 1.487-1.105z" fill="#fff"/></svg><svg fill="none" viewBox="0 0 16 16" id="icons-sprite--tooltip" xmlns="http://www.w3.org/2000/svg"><path d="M15.5 8a7.5 7.5 0 11-15 0 7.5 7.5 0 0115 0z" stroke="#9D5CD0"/><path d="M7.262 6.455h1.476V13H7.262V6.455zM8 4.903c-.287 0-.528-.092-.723-.274A.906.906 0 017 3.959c0-.264.092-.487.277-.67A.988.988 0 018 3c.287 0 .523.091.708.274.195.172.292.39.292.654a.949.949 0 01-.292.7.964.964 0 01-.708.275z" fill="#000"/></svg><svg fill="none" viewBox="0 0 236 236" id="icons-sprite--unknown" xmlns="http://www.w3.org/2000/svg"><path d="M39.736 46.804c6.072 0 11.013-4.94 11.013-11.013 0-6.072-4.941-11.013-11.014-11.013-6.072 0-11.013 4.94-11.013 11.013 0 6.072 4.941 11.013 11.014 11.013zm0-15.733a4.725 4.725 0 014.72 4.72 4.725 4.725 0 01-4.72 4.72 4.725 4.725 0 01-4.72-4.72 4.725 4.725 0 014.72-4.72zM182.909 89.284c0 6.073 4.941 11.014 11.013 11.014s11.013-4.941 11.013-11.014c0-6.072-4.941-11.013-11.013-11.013s-11.013 4.941-11.013 11.013zm11.013-4.72a4.725 4.725 0 014.72 4.72 4.725 4.725 0 01-4.72 4.72 4.725 4.725 0 01-4.72-4.72 4.725 4.725 0 014.72-4.72zM206.509 55.087a3.563 3.563 0 10-.001-7.125 3.563 3.563 0 00.001 7.125zM55.469 67.674a3.563 3.563 0 100-7.126 3.563 3.563 0 000 7.126zM171.757 40.65c.614.614 1.42.921 2.225.921.804 0 1.61-.307 2.224-.921l3.556-3.556 3.556 3.556c.614.614 1.42.921 2.225.921a3.146 3.146 0 002.224-5.371l-3.555-3.556 3.555-3.555a3.146 3.146 0 10-4.449-4.45l-3.556 3.556-3.556-3.556a3.146 3.146 0 10-4.449 4.45l3.556 3.555-3.556 3.556a3.146 3.146 0 000 4.45zM27.01 106.729c.614.615 1.42.922 2.225.922.804 0 1.61-.307 2.224-.922l3.556-3.555 3.556 3.555c.614.615 1.42.922 2.224.922a3.145 3.145 0 002.225-5.371l-3.556-3.556 3.556-3.555a3.146 3.146 0 10-4.45-4.45l-3.555 3.556-3.556-3.556a3.146 3.146 0 10-4.449 4.45l3.556 3.555-3.556 3.556a3.145 3.145 0 000 4.449zM134.135 108.164a3.147 3.147 0 100-6.294 3.147 3.147 0 000 6.294zM102.669 108.164a3.147 3.147 0 10-.001-6.293 3.147 3.147 0 00.001 6.293z" fill="#999"/><path d="M205.249 155.994c-3.991-2.996-4.326-7.836-4.713-13.437-.606-8.734-1.359-19.599-18.81-21.782-8.893-1.103-17.709 1.746-24.838 8.036-5.925 5.233-10.109 12.371-12.059 20.09l-12.266-5.573v-2.539c0-.029-.016-.054-.017-.083 12.043-5.754 21.199-16.476 24.914-29.401 2.093.055 4.019-.508 5.921-1.693 2.92-1.822 4.896-4.785 5.283-7.931a11.063 11.063 0 00-2.673-8.678 11.043 11.043 0 00-5.344-3.328c-.006-.553-.028-2.563-.036-2.773.158-.377.273-14.025.273-14.025.728-.087 1.438-.219 2.108-.45 2.36-.815 4.161-2.487 5.347-4.966h.003c4.094-8.555-3.221-20.673-17.119-30.003.974-2.465 1.076-5.154.188-7.675a10.951 10.951 0 00-5.63-6.272 10.927 10.927 0 00-8.419-.458c-2.524.892-4.556 2.655-5.865 4.957-15.98-4.98-30.008-3.084-34.108 5.47-.922 1.927-1.121 3.941-.674 5.891-13.467 6.157-20.846 17.798-20.79 32.99l.04 5.197c.031 2.94.109 8.45.167 8.695 0 .046.032 2.647.032 3.415a10.938 10.938 0 00-5.018 2.98 10.944 10.944 0 00-3.079 8.049c.117 3.367 2.028 6.619 5.107 8.696 1.946 1.312 3.897 1.954 6.017 1.92 3.291 12.025 11.273 22.115 21.922 28.242-.001.026-.015.048-.015.075v3.697L76.02 154.724c-11.527 5.239-18.976 16.947-18.976 29.823v25.882a3.145 3.145 0 003.147 3.147h113.28a3.145 3.145 0 003.147-3.147v-14.488c1.55.195 3.118.328 4.72.328 13.899 0 28.636-8.994 32.185-19.639 1.436-4.312 2.272-12.726-8.274-20.636zM139.452 28.991a4.714 4.714 0 013.604.194c1.893.908 2.883 2.917 2.618 4.89a79.25 79.25 0 00-3.976-2.055 78.96 78.96 0 00-4.056-1.796c.509-.534 1.095-.982 1.81-1.233zm-36.39 7.206c1.417-2.953 5.839-4.671 12.04-4.671 6.481 0 14.907 1.874 23.879 6.17 17.559 8.414 26.572 21.007 23.681 27.048-.578 1.208-1.227 1.561-1.727 1.736-3.663 1.254-12.35-3.045-21.569-7.593-2.265-1.118-4.64-2.292-7.123-3.481-2.437-1.168-4.852-2.29-7.194-3.377-10.163-4.724-20.666-9.61-22.156-13.76-.245-.687-.197-1.307.169-2.072zm-3.149 8.623c4.414 4.507 12.653 8.346 22.481 12.915a624.251 624.251 0 017.132 3.35c2.458 1.176 4.812 2.338 7.055 3.444 7.142 3.528 13.073 6.449 18.008 7.738v11.898c-9.416 7.08-20.063 9.763-30.127 7.563-9.023-1.97-16.504-7.688-20.524-15.687a3.147 3.147 0 00-2.333-1.696 3.113 3.113 0 00-2.735.915c-4.06 4.18-9.987 6.69-16.578 7.102-.003-1.519-.022-3.171-.037-4.865l-.04-5.16c-.06-16.216 9.403-23.894 17.698-27.517zM84.646 107.09a3.156 3.156 0 00-1.512-2.096 3.186 3.186 0 00-2.575-.255c-1.216.415-2.341.471-3.865-.562-1.395-.94-2.293-2.36-2.342-3.703a4.695 4.695 0 011.322-3.454 4.684 4.684 0 013.395-1.441c.85 0 1.699-.363 2.292-.971.874-.898 1.144-1.67 1.09-5.964 6.731-.377 12.977-2.573 17.87-6.29 5.147 7.869 13.263 13.443 22.798 15.523 2.753.603 5.534.901 8.321.901 7.827-.002 15.675-2.385 22.981-6.922.12 1.438.407 2.126 1.043 2.77.59.6 1.429.953 2.271.953 1.353 0 2.643.58 3.537 1.594.91 1.027 1.316 2.354 1.146 3.74-.159 1.278-1.044 2.532-2.366 3.359-1.328.827-2.452.953-3.875.452a3.12 3.12 0 00-2.578.214 3.158 3.158 0 00-1.546 2.081c-3.064 14.068-13.462 25.561-27.14 29.992l-1.389.455c-3.912 1.268-7.91 1.315-11.554.138-13.913-4.477-24.383-16.17-27.324-30.514zm25.395 36.506a23.983 23.983 0 007.381 1.149c2.671 0 5.378-.43 8.045-1.294l.803-.262v1.163c0 5.205-4.235 9.44-9.44 9.44-5.206 0-9.44-4.235-9.44-9.44v-1.799c.884.346 1.739.75 2.651 1.043zm60.281 63.689h-18.88v-15.733a3.145 3.145 0 00-3.147-3.147 3.145 3.145 0 00-3.146 3.147v15.733H85.362v-15.733a3.145 3.145 0 00-3.147-3.147 3.145 3.145 0 00-3.146 3.147v15.733H63.335v-22.736c0-10.414 6.002-19.873 15.289-24.095l23.494-10.677c2.221 5.998 7.95 10.308 14.711 10.308s12.49-4.31 14.71-10.309l12.211 5.548c-.088 1.061-.175 2.122-.175 3.188 0 16.991 11.283 31.386 26.747 36.112v12.661zm37.228-32.643c-2.676 8.026-15.171 15.337-26.215 15.337-17.35 0-31.466-14.117-31.466-31.467 0-9.461 4.182-18.8 11.185-24.98 4.954-4.373 10.875-6.696 16.935-6.696.983 0 1.97.061 2.956.184 12.313 1.54 12.732 7.593 13.312 15.97.431 6.242.919 13.315 7.219 18.039 5.632 4.225 7.676 8.807 6.074 13.613z" fill="#999"/><path d="M193.922 161.787c-5.135 0-9.311 4.176-9.311 9.311 0 5.131 4.176 9.307 9.311 9.307 5.134 0 9.311-4.176 9.311-9.307 0-5.135-4.176-9.311-9.311-9.311zm0 12.325a3.02 3.02 0 01-3.018-3.014 3.024 3.024 0 013.018-3.018 3.023 3.023 0 013.017 3.018 3.02 3.02 0 01-3.017 3.014zM175.042 131.396c-4.542 0-8.236 3.693-8.236 8.235s3.694 8.236 8.236 8.236c4.542 0 8.235-3.694 8.235-8.236 0-4.542-3.693-8.235-8.235-8.235zm0 10.177a1.947 1.947 0 01-1.943-1.942c0-1.07.873-1.942 1.943-1.942s1.942.872 1.942 1.942c0 1.07-.872 1.942-1.942 1.942zM169.118 156.938c0-4.542-3.694-8.236-8.236-8.236-4.542 0-8.236 3.693-8.236 8.236 0 4.542 3.694 8.235 8.236 8.235 4.542 0 8.236-3.693 8.236-8.235zm-8.236 1.942a1.947 1.947 0 01-1.942-1.942c0-1.07.872-1.943 1.942-1.943 1.07 0 1.942.873 1.942 1.943a1.946 1.946 0 01-1.942 1.942zM171.895 169.155c-4.541 0-8.235 3.694-8.235 8.236 0 4.542 3.693 8.235 8.235 8.235s8.236-3.693 8.236-8.235-3.694-8.236-8.236-8.236zm0 10.178a1.946 1.946 0 01-1.942-1.942c0-1.07.872-1.942 1.942-1.942 1.07 0 1.943.872 1.943 1.942 0 1.07-.873 1.942-1.943 1.942zM48.303 136.131a83.175 83.175 0 01-1.754-1.77l-.002-.002v-.001c-2.413-2.523-4.02-4.822-4.02-7.83 0-3.998-2.074-5.095-3.313-5.392-4.907-1.242-10.653 8.389-13.64 14.212-1.795 3.499-3.937 8.398-3.937 11.861 0 6.106 3.368 11.39 8.307 14.25l-1.82 40.423c-.148 3.266.996 6.426 3.137 8.663 1.869 1.957 4.32 3.033 6.902 3.033 2.58 0 5.033-1.076 6.901-3.033 2.142-2.237 3.285-5.396 3.137-8.663l-1.82-40.423c4.94-2.861 8.308-8.145 8.308-14.25 0-4.754-3.394-8.115-6.386-11.078zm-11.739-6.509c.584 2.634 1.865 4.825 3.35 6.711-1.113.827-2.21 1.263-3.282 1.306-1.444-.006-3.011-.673-4.29-1.598 1.524-2.707 3.021-4.891 4.222-6.419zm5.35 72.543c.071 1.557-.44 3.03-1.398 4.031-.473.498-1.268 1.088-2.353 1.088-1.085 0-1.881-.59-2.354-1.088-.959-1.001-1.469-2.474-1.398-4.031l1.74-38.634c.666.082 1.323.204 2.012.204.689 0 1.345-.121 2.012-.204l1.74 38.634zm-3.752-44.723c-5.642 0-10.233-4.591-10.233-10.233 0-.892.467-2.789 1.62-5.523 2.266 1.45 4.571 2.25 6.898 2.25.142 0 .282-.004.427-.01 2.577-.099 5.035-1.111 7.342-2.985 2.274 2.259 4.179 4.24 4.179 6.267 0 5.643-4.591 10.234-10.233 10.234z" fill="#999"/></svg><svg fill="none" viewBox="0 0 45 45" id="icons-sprite--vk" xmlns="http://www.w3.org/2000/svg"><path d="M22.5 0C10.074 0 0 10.074 0 22.5S10.074 45 22.5 45 45 34.926 45 22.5 34.926 0 22.5 0zm11.413 24.933c1.049 1.025 2.158 1.989 3.1 3.119.417.5.81 1.017 1.11 1.598.427.83.04 1.739-.701 1.788l-4.61-.001c-1.19.098-2.138-.382-2.937-1.196-.637-.648-1.229-1.341-1.843-2.012-.25-.275-.515-.534-.83-.738-.628-.41-1.174-.284-1.534.373-.367.668-.451 1.408-.486 2.151-.05 1.087-.378 1.371-1.468 1.422-2.33.11-4.542-.244-6.597-1.419-1.813-1.036-3.216-2.499-4.439-4.155-2.38-3.228-4.204-6.77-5.843-10.415-.368-.821-.099-1.26.807-1.277 1.504-.03 3.009-.026 4.513-.002.613.01 1.018.36 1.253.938.813 2 1.81 3.904 3.059 5.669.332.47.672.938 1.156 1.27.534.367.94.245 1.193-.35.16-.38.23-.785.265-1.19.12-1.392.134-2.782-.073-4.167-.129-.867-.616-1.427-1.48-1.59-.44-.084-.376-.247-.162-.498.372-.435.72-.704 1.415-.704h5.208c.821.16 1.005.529 1.117 1.356l.004 5.787c-.01.32.16 1.269.735 1.478.46.152.765-.217 1.04-.509 1.249-1.325 2.139-2.89 2.936-4.508.351-.714.655-1.453.95-2.194.218-.547.56-.816 1.177-.807l5.015.006c.148 0 .298.001.444.027.846.144 1.077.508.816 1.332-.412 1.296-1.212 2.375-1.993 3.457-.838 1.158-1.732 2.276-2.561 3.44-.763 1.063-.702 1.598.244 2.521z" fill="#CACACA"/></svg><svg fill="none" viewBox="0 0 23 23" id="icons-sprite--whatsapp" xmlns="http://www.w3.org/2000/svg"><path d="M16.875 13.751c-.25-.125-1.563-.875-1.813-.938-.25-.125-.437-.125-.624.125-.188.25-.75.875-.876 1-.187.188-.312.188-.562.063-.25-.125-1.125-.438-2.125-1.438-.75-.75-1.313-1.625-1.438-1.937-.124-.25 0-.438.126-.563.124-.125.25-.312.437-.437.188-.125.188-.25.313-.438.124-.187.062-.312 0-.5-.063-.187-.563-1.5-.75-2.062-.188-.563-.438-.438-.563-.5-.188 0-.313-.063-.5-.063-.25 0-.563.125-.75.313-.25.25-1 .875-1 2.187 0 1.313.875 2.688 1 2.813.125.188 1.75 3.063 4.438 4.25 2.687 1.188 2.687.813 3.187.813S17 15.813 17.25 15.25c.25-.625.25-1.188.188-1.25-.125 0-.313-.063-.563-.25zm-5 6.438c-1.75 0-3.375-.5-4.813-1.438l-3.375 1.063 1.126-3.25c-1.063-1.5-1.688-3.313-1.688-5.188a8.802 8.802 0 018.813-8.813c4.874 0 8.75 3.938 8.75 8.813a8.802 8.802 0 01-8.813 8.813zm0-19.376c-5.813 0-10.563 4.75-10.563 10.563 0 1.938.5 3.813 1.5 5.438L.875 22.5l5.875-1.875c1.563.875 3.313 1.313 5.125 1.313 5.813 0 10.563-4.75 10.563-10.563C22.438 5.563 17.75.813 11.874.813z" fill="#fff"/></svg><svg fill="none" viewBox="0 0 173 40" id="logo" xmlns="http://www.w3.org/2000/svg"><path d="M2.79 32.78l-2.5-3.645h1.806l1.698 2.607 1.711-2.607h1.793L4.79 32.78l2.635 3.807H5.633l-1.84-2.79-1.832 2.79H.168L2.79 32.78zM7.6 29.135h1.726l1.516 4.225c.229.602.382 1.168.458 1.698h.054c.04-.247.115-.546.222-.897.108-.354.679-2.03 1.712-5.026h1.711l-3.187 8.443c-.58 1.55-1.545 2.325-2.897 2.325-.35 0-.692-.039-1.024-.115v-1.253c.238.054.51.08.815.08.764 0 1.3-.442 1.61-1.327l.277-.7L7.6 29.134zM23.28 39.222h-1.475v-2.635h-5.107v2.635h-1.463v-3.861h.607c.53-.76.95-1.676 1.26-2.75.314-1.077.5-2.236.559-3.476h4.528v6.226h1.092v3.861zm-2.647-3.861v-5.013h-1.604a13.644 13.644 0 01-.54 2.735c-.269.899-.599 1.658-.99 2.278h3.134zM31.272 32.848c0 1.217-.312 2.167-.936 2.85-.625.683-1.494 1.024-2.608 1.024-.696 0-1.312-.157-1.846-.472a3.114 3.114 0 01-1.233-1.354c-.288-.589-.432-1.271-.432-2.048 0-1.209.31-2.152.93-2.83.62-.679 1.494-1.018 2.622-1.018 1.078 0 1.931.348 2.56 1.044.629.692.943 1.627.943 2.804zm-5.424 0c0 1.72.636 2.58 1.907 2.58 1.258 0 1.887-.86 1.887-2.58 0-1.703-.634-2.554-1.9-2.554-.665 0-1.148.22-1.45.66-.296.44-.444 1.072-.444 1.894zM36.77 32.753v-3.618h1.476v3.618l2.871-3.618h1.671l-2.931 3.605 3.194 3.847h-1.745l-3.06-3.78v3.78h-1.475v-3.78l-3.053 3.78H31.98l3.187-3.847-2.924-3.605h1.67l2.858 3.618zM47.458 36.722c-1.16 0-2.067-.337-2.722-1.01-.652-.679-.978-1.611-.978-2.797 0-1.217.304-2.174.91-2.87.607-.697 1.44-1.045 2.5-1.045.984 0 1.76.299 2.331.896.57.598.856 1.42.856 2.466v.856H45.39c.022.723.218 1.28.586 1.671.369.387.887.58 1.557.58.44 0 .849-.04 1.226-.122.382-.085.79-.224 1.227-.417v1.287a4.86 4.86 0 01-1.173.39 7.187 7.187 0 01-1.354.115zm-.29-6.523c-.503 0-.907.16-1.213.479-.3.319-.48.784-.539 1.395h3.383c-.01-.616-.158-1.08-.445-1.395-.288-.32-.683-.479-1.186-.479zM55.16 36.722c-1.128 0-1.986-.328-2.574-.984-.584-.66-.876-1.606-.876-2.837 0-1.253.305-2.216.916-2.89.615-.674 1.503-1.011 2.662-1.011.786 0 1.493.146 2.122.438l-.478 1.274c-.67-.261-1.222-.391-1.658-.391-1.29 0-1.934.855-1.934 2.567 0 .836.16 1.464.479 1.887.323.418.795.626 1.415.626a4.05 4.05 0 002.001-.525v1.381a3.124 3.124 0 01-.91.357 5.396 5.396 0 01-1.165.108zM64.586 29.135v1.24h-2.425v6.212h-1.59v-6.212h-2.426v-1.24h6.441zM72.49 31.042c0 .88-.514 1.413-1.543 1.597v.054c.575.067 1.016.249 1.321.545.305.297.458.68.458 1.153 0 .705-.27 1.248-.808 1.63-.535.378-1.314.566-2.339.566h-3.557v-7.452h3.544c1.95 0 2.924.635 2.924 1.907zm-1.388 3.254c0-.36-.139-.613-.417-.761-.279-.153-.697-.23-1.254-.23h-1.826v2.11h1.867c1.087 0 1.63-.373 1.63-1.119zm-.195-3.12c0-.296-.117-.51-.35-.64-.23-.134-.573-.202-1.031-.202h-1.92v1.793h1.684c.53 0 .932-.068 1.206-.203.274-.139.41-.388.41-.747zM77.618 36.722c-1.159 0-2.066-.337-2.722-1.01-.651-.679-.977-1.611-.977-2.797 0-1.217.303-2.174.91-2.87.606-.697 1.44-1.045 2.5-1.045.983 0 1.76.299 2.331.896.57.598.856 1.42.856 2.466v.856H75.55c.022.723.218 1.28.586 1.671.368.387.887.58 1.556.58.44 0 .85-.04 1.227-.122.382-.085.79-.224 1.226-.417v1.287a4.857 4.857 0 01-1.172.39 7.187 7.187 0 01-1.355.115zm-.29-6.523c-.503 0-.907.16-1.212.479-.301.319-.481.784-.54 1.395h3.383c-.009-.616-.157-1.08-.445-1.395-.287-.32-.682-.479-1.185-.479zM83.898 29.135v2.992h3.511v-2.992h1.584v7.452h-1.584v-3.214h-3.51v3.214h-1.584v-7.452h1.583zM92.847 29.135v2.992h3.51v-2.992h1.584v7.452h-1.584v-3.214h-3.51v3.214h-1.584v-7.452h1.584zM104.875 36.587l-.317-1.037h-.054c-.359.453-.721.763-1.085.93-.364.161-.831.242-1.401.242-.733 0-1.305-.198-1.719-.593-.409-.395-.613-.954-.613-1.678 0-.768.285-1.347.856-1.738.57-.391 1.44-.604 2.608-.64l1.287-.04v-.398c0-.477-.113-.831-.337-1.065-.22-.238-.564-.357-1.031-.357-.382 0-.748.056-1.099.168-.35.113-.687.245-1.01.398l-.512-1.132c.404-.211.846-.37 1.327-.478a5.993 5.993 0 011.361-.169c.948 0 1.662.207 2.143.62.485.413.728 1.062.728 1.947v5.02h-1.132zm-2.359-1.078c.575 0 1.036-.16 1.382-.478.35-.324.525-.775.525-1.355v-.647l-.957.04c-.745.028-1.289.154-1.63.378-.337.22-.506.56-.506 1.018 0 .332.099.59.297.775.197.18.494.27.889.27zM108.978 36.587h-1.772l2.075-3.052c-.503-.144-.898-.4-1.185-.768-.288-.373-.432-.834-.432-1.382 0-.705.252-1.255.755-1.65.503-.4 1.19-.6 2.062-.6h3.396v7.452h-1.59v-2.87h-1.503l-1.806 2.87zm.229-5.188c0 .382.144.67.432.862.292.189.682.283 1.172.283h1.476v-2.21h-1.725c-.432 0-.766.092-1.004.276-.234.185-.351.447-.351.789zM124.544 29.135v1.24h-3.235v6.212h-1.583v-7.452h4.818zM130.642 36.587l-.317-1.037h-.054c-.359.453-.721.763-1.085.93-.364.161-.831.242-1.401.242-.732 0-1.305-.198-1.718-.593-.409-.395-.614-.954-.614-1.678 0-.768.286-1.347.856-1.738.571-.391 1.44-.604 2.608-.64l1.287-.04v-.398c0-.477-.112-.831-.337-1.065-.22-.238-.564-.357-1.031-.357-.382 0-.748.056-1.098.168a8.247 8.247 0 00-1.011.398l-.512-1.132c.404-.211.847-.37 1.327-.478a6 6 0 011.361-.169c.948 0 1.662.207 2.143.62.485.413.728 1.062.728 1.947v5.02h-1.132zm-2.359-1.078c.575 0 1.036-.16 1.382-.478.35-.324.525-.775.525-1.355v-.647l-.956.04c-.746.028-1.29.154-1.631.378-.337.22-.506.56-.506 1.018 0 .332.099.59.297.775.198.18.494.27.889.27zM140.109 36.587h-1.597v-6.212h-2.055c-.126 1.599-.297 2.848-.512 3.746-.211.898-.49 1.554-.836 1.968-.341.413-.786.62-1.334.62-.346 0-.636-.05-.869-.149v-1.24c.166.063.332.095.498.095.459 0 .818-.514 1.079-1.543.265-1.033.471-2.612.62-4.737h5.006v7.452zM145.634 36.722c-1.159 0-2.066-.337-2.722-1.01-.651-.679-.977-1.611-.977-2.797 0-1.217.303-2.174.91-2.87.606-.697 1.44-1.045 2.5-1.045.984 0 1.761.299 2.331.896.571.598.856 1.42.856 2.466v.856h-4.966c.022.723.218 1.28.586 1.671.368.387.887.58 1.557.58.44 0 .849-.04 1.226-.122a6.584 6.584 0 001.226-.417v1.287a4.854 4.854 0 01-1.172.39 7.188 7.188 0 01-1.355.115zm-.289-6.523c-.503 0-.908.16-1.213.479-.301.319-.481.784-.539 1.395h3.382c-.009-.616-.157-1.08-.444-1.395-.288-.32-.683-.479-1.186-.479zM154.111 36.722c-.943 0-1.675-.34-2.196-1.017h-.095c.063.629.095 1.01.095 1.145v3.053h-1.584V29.135h1.28c.036.139.11.471.223.997h.081c.494-.755 1.235-1.132 2.223-1.132.93 0 1.653.337 2.17 1.01.521.675.782 1.62.782 2.838 0 1.217-.265 2.167-.796 2.85-.525.683-1.253 1.024-2.183 1.024zm-.384-6.428c-.629 0-1.089.184-1.381.552-.288.369-.431.957-.431 1.766v.236c0 .907.143 1.565.431 1.974.287.404.757.606 1.408.606.548 0 .97-.224 1.267-.673.296-.45.445-1.09.445-1.92 0-.837-.149-1.468-.445-1.894-.292-.432-.723-.647-1.294-.647zM162.184 36.722c-1.159 0-2.067-.337-2.723-1.01-.651-.679-.977-1.611-.977-2.797 0-1.217.304-2.174.91-2.87.606-.697 1.44-1.045 2.5-1.045.984 0 1.761.299 2.331.896.571.598.856 1.42.856 2.466v.856h-4.966c.022.723.218 1.28.586 1.671.369.387.887.58 1.557.58.44 0 .849-.04 1.226-.122a6.616 6.616 0 001.227-.417v1.287a4.876 4.876 0 01-1.173.39 7.184 7.184 0 01-1.354.115zm-.29-6.523c-.503 0-.907.16-1.213.479-.301.319-.481.784-.539 1.395h3.383c-.009-.616-.158-1.08-.445-1.395-.288-.32-.683-.479-1.186-.479zM167.642 36.587h-1.772l2.075-3.052c-.503-.144-.899-.4-1.186-.768-.288-.373-.431-.834-.431-1.382 0-.705.251-1.255.754-1.65.504-.4 1.191-.6 2.062-.6h3.396v7.452h-1.59v-2.87h-1.502l-1.806 2.87zm.229-5.188c0 .382.144.67.431.862.292.189.683.283 1.173.283h1.475v-2.21h-1.725c-.431 0-.766.092-1.004.276-.233.185-.35.447-.35.789zM0 21.599h11.661c4.6 0 6.953-2.083 6.953-6.048v-.062c0-2.946-1.497-4.736-4.38-5.245v-.278c2.416-.462 3.679-2.036 3.679-4.597v-.077C17.913 1.805 15.714 0 11.412 0H0v21.599zM4.599 8.84V3.055h5.44c2.199 0 3.29.956 3.29 2.838v.062c0 1.913-1.091 2.885-3.29 2.885H4.6zm0 9.689v-6.881h5.581c2.417 0 3.617 1.142 3.617 3.379v.061c0 2.284-1.2 3.44-3.617 3.44H4.6zM22.946 0v21.599h4.537V0h-4.537zM36.975 22c3.664 0 6.33-1.62 7.312-4.366l.312.077c-.593 2.993.03 4.289 3.616 4.289.452 0 .904-.046 1.279-.108l.53-2.669-.78-.015c-.857-.016-1.107-.216-1.107-1.312v-7.42c0-3.672-2.463-5.431-7.717-5.431-5.58 0-8.402 2.175-8.169 5.94l4.475.37c-.187-2.484 1.091-3.61 3.6-3.61 2.246 0 3.306.817 3.306 2.684v.91l-4.427.803c-4.428.817-7.359 2.206-7.359 5.6v.046c0 2.685 1.84 4.212 5.13 4.212zm1.808-2.993c-1.527 0-2.354-.54-2.354-1.65v-.032c0-1.589 1.45-2.237 4.319-2.792l2.884-.555v.755c0 2.484-2.26 4.274-4.849 4.274zM53.841 21.599h4.537V14.07c0-3.64 1.73-5.893 4.599-5.893 2.136 0 3.196 1.095 3.196 3.193V21.6h4.537V10.29c0-3.394-2.012-5.183-5.753-5.183-3.399 0-5.722 1.48-7.093 4.566l-.312-.139c.623-1.836.842-2.93.842-4.134H53.84v16.199zM84.208 21.985c5.348 0 8.34-2.13 8.793-6.249l-4.584-.509c-.186 2.592-1.62 3.903-4.193 3.903-2.884 0-4.38-1.79-4.38-5.322v-.756c0-3.456 1.511-5.2 4.333-5.2 2.604 0 3.96 1.436 4.163 4.305l4.52-.509c-.358-4.366-3.242-6.634-8.667-6.634-5.893 0-8.996 2.854-8.996 8.316v.2c0 5.554 3.072 8.455 9.011 8.455zM97.52 21.599h4.537V14.07c0-3.64 1.715-5.878 4.599-5.878 2.135 0 3.196 1.08 3.196 3.178V21.6h4.536V10.29c0-3.394-2.026-5.183-5.752-5.183-3.43 0-5.737 1.48-7.094 4.55l-.327-.123c.608-1.728.826-3.008.842-4.535V0H97.52v21.599zM123.803 22c3.663 0 6.329-1.62 7.311-4.366l.312.077c-.593 2.993.031 4.289 3.617 4.289.452 0 .904-.046 1.278-.108l.53-2.669-.779-.015c-.858-.016-1.107-.216-1.107-1.312v-7.42c0-3.672-2.463-5.431-7.717-5.431-5.581 0-8.403 2.175-8.169 5.94l4.474.37c-.187-2.484 1.091-3.61 3.601-3.61 2.245 0 3.305.817 3.305 2.684v.91l-4.427.803c-4.428.817-7.359 2.206-7.359 5.6v.046c0 2.685 1.84 4.212 5.13 4.212zm1.808-2.993c-1.528 0-2.354-.54-2.354-1.65v-.032c0-1.589 1.45-2.237 4.318-2.792l2.884-.555v.755c0 2.484-2.26 4.274-4.848 4.274zM140.669 21.599h4.536v-6.773c0-4.227 1.325-5.785 4.786-6.032l2.23-.17-.53-3.733c-3.664.277-5.363 1.419-7.047 4.782l-.296-.139c.733-2.16.904-3.023.873-4.134h-4.552v16.199zM162.243 21.892c3.367 0 5.566-1.543 6.672-4.335l.328.108c-.53 1.697-.811 3.04-.826 3.934H173V0h-4.537v4.397c0 1.697.234 3.07.795 4.937l-.311.123c-1.107-2.777-3.321-4.381-6.704-4.381-4.677 0-7.14 2.823-7.14 8.223v.385c0 5.385 2.463 8.208 7.14 8.208zm1.715-2.777c-2.806 0-4.272-1.774-4.272-5.276v-.71c0-3.518 1.466-5.307 4.272-5.307 2.931 0 4.505 1.882 4.505 5.384v.556c0 3.486-1.574 5.353-4.505 5.353z" fill="#fff"/></svg></svg>