<svg width="23" height="19" fill="none" xmlns="http://www.w3.org/2000/svg"><path fill-rule="evenodd" clip-rule="evenodd" d="M2.053 7.789l11.664-5.024C19.27.455 20.425.053 21.177.04c.166-.003.536.038.775.233.203.164.258.386.285.541.027.156.06.51.034.788-.302 3.162-1.604 10.837-2.266 14.379-.28 1.498-.832 2-1.367 2.05-1.162.107-2.044-.767-3.169-1.505l-4.463-2.998c-1.975-1.301-.694-2.016.43-3.185.295-.306 5.413-4.96 5.512-5.383.012-.053.024-.25-.093-.354-.117-.104-.29-.068-.415-.04-.176.04-2.988 1.899-8.436 5.576-.798.548-1.52.816-2.168.802-.715-.016-2.088-.404-3.11-.736C1.475 9.8.48 9.585.567 8.894c.044-.36.54-.729 1.487-1.105z" fill="#fff"/></svg>