<svg width="236" height="236" fill="none" xmlns="http://www.w3.org/2000/svg"><path d="M39.736 46.804c6.072 0 11.013-4.94 11.013-11.013 0-6.072-4.941-11.013-11.014-11.013-6.072 0-11.013 4.94-11.013 11.013 0 6.072 4.941 11.013 11.014 11.013zm0-15.733a4.725 4.725 0 014.72 4.72 4.725 4.725 0 01-4.72 4.72 4.725 4.725 0 01-4.72-4.72 4.725 4.725 0 014.72-4.72zm143.173 58.213c0 6.073 4.941 11.014 11.013 11.014s11.013-4.941 11.013-11.014c0-6.072-4.941-11.013-11.013-11.013s-11.013 4.941-11.013 11.013zm11.013-4.72a4.725 4.725 0 014.72 4.72 4.725 4.725 0 01-4.72 4.72 4.725 4.725 0 01-4.72-4.72 4.725 4.725 0 014.72-4.72zm12.587-29.477a3.563 3.563 0 10-.001-7.125 3.563 3.563 0 00.001 7.125zM55.469 67.674a3.563 3.563 0 100-7.126 3.563 3.563 0 000 7.126zM171.757 40.65c.614.614 1.42.921 2.225.921.804 0 1.61-.307 2.224-.921l3.556-3.556 3.556 3.556c.614.614 1.42.921 2.225.921a3.146 3.146 0 002.224-5.371l-3.555-3.556 3.555-3.555a3.146 3.146 0 10-4.449-4.45l-3.556 3.556-3.556-3.556a3.146 3.146 0 10-4.449 4.45l3.556 3.555-3.556 3.556a3.146 3.146 0 000 4.45zM27.01 106.729c.614.615 1.42.922 2.225.922.804 0 1.61-.307 2.224-.922l3.556-3.555 3.556 3.555c.614.615 1.42.922 2.224.922a3.145 3.145 0 002.225-5.371l-3.556-3.556 3.556-3.555a3.146 3.146 0 10-4.45-4.45l-3.555 3.556-3.556-3.556a3.146 3.146 0 10-4.449 4.45l3.556 3.555-3.556 3.556a3.145 3.145 0 000 4.449zm107.125 1.435a3.147 3.147 0 100-6.294 3.147 3.147 0 000 6.294zm-31.466 0a3.147 3.147 0 10-.001-6.293 3.147 3.147 0 00.001 6.293z" fill="#999"/><path d="M205.249 155.994c-3.991-2.996-4.326-7.836-4.713-13.437-.606-8.734-1.359-19.599-18.81-21.782-8.893-1.103-17.709 1.746-24.838 8.036-5.925 5.233-10.109 12.371-12.059 20.09l-12.266-5.573v-2.539c0-.029-.016-.054-.017-.083 12.043-5.754 21.199-16.476 24.914-29.401 2.093.055 4.019-.508 5.921-1.693 2.92-1.822 4.896-4.785 5.283-7.931a11.063 11.063 0 00-2.673-8.678 11.043 11.043 0 00-5.344-3.328c-.006-.553-.028-2.563-.036-2.773.158-.377.273-14.025.273-14.025.728-.087 1.438-.219 2.108-.45 2.36-.815 4.161-2.487 5.347-4.966h.003c4.094-8.555-3.221-20.673-17.119-30.003.974-2.465 1.076-5.154.188-7.675a10.951 10.951 0 00-5.63-6.272 10.927 10.927 0 00-8.419-.458c-2.524.892-4.556 2.655-5.865 4.957-15.98-4.98-30.008-3.084-34.108 5.47-.922 1.927-1.121 3.941-.674 5.891-13.467 6.157-20.846 17.798-20.79 32.99l.04 5.197c.031 2.94.109 8.45.167 8.695 0 .046.032 2.647.032 3.415a10.938 10.938 0 00-5.018 2.98 10.944 10.944 0 00-3.079 8.049c.117 3.367 2.028 6.619 5.107 8.696 1.946 1.312 3.897 1.954 6.017 1.92 3.291 12.025 11.273 22.115 21.922 28.242-.001.026-.015.048-.015.075v3.697L76.02 154.724c-11.527 5.239-18.976 16.947-18.976 29.823v25.882a3.145 3.145 0 003.147 3.147h113.28a3.145 3.145 0 003.147-3.147v-14.488c1.55.195 3.118.328 4.72.328 13.899 0 28.636-8.994 32.185-19.639 1.436-4.312 2.272-12.726-8.274-20.636zM139.452 28.991a4.714 4.714 0 013.604.194c1.893.908 2.883 2.917 2.618 4.89a79.25 79.25 0 00-3.976-2.055 78.96 78.96 0 00-4.056-1.796c.509-.534 1.095-.982 1.81-1.233zm-36.39 7.206c1.417-2.953 5.839-4.671 12.04-4.671 6.481 0 14.907 1.874 23.879 6.17 17.559 8.414 26.572 21.007 23.681 27.048-.578 1.208-1.227 1.561-1.727 1.736-3.663 1.254-12.35-3.045-21.569-7.593-2.265-1.118-4.64-2.292-7.123-3.481a638.753 638.753 0 00-7.194-3.377c-10.163-4.724-20.666-9.61-22.156-13.76-.245-.687-.197-1.307.169-2.072zm-3.149 8.623c4.414 4.507 12.653 8.346 22.481 12.915a624.251 624.251 0 017.132 3.35c2.458 1.176 4.812 2.338 7.055 3.444 7.142 3.528 13.073 6.449 18.008 7.738v11.898c-9.416 7.08-20.063 9.763-30.127 7.563-9.023-1.97-16.504-7.688-20.524-15.687a3.147 3.147 0 00-2.333-1.696 3.113 3.113 0 00-2.735.915c-4.06 4.18-9.987 6.69-16.578 7.102-.003-1.519-.022-3.171-.037-4.865l-.04-5.16c-.06-16.216 9.403-23.894 17.698-27.517zm-15.267 62.27a3.156 3.156 0 00-1.512-2.096 3.186 3.186 0 00-2.575-.255c-1.216.415-2.341.471-3.865-.562-1.395-.94-2.293-2.36-2.342-3.703a4.695 4.695 0 011.322-3.454 4.684 4.684 0 013.395-1.441c.85 0 1.699-.363 2.292-.971.874-.898 1.144-1.67 1.09-5.964 6.731-.377 12.977-2.573 17.87-6.29 5.147 7.869 13.263 13.443 22.798 15.523 2.753.603 5.534.901 8.321.901 7.827-.002 15.675-2.385 22.981-6.922.12 1.438.407 2.126 1.043 2.77.59.6 1.429.953 2.271.953 1.353 0 2.643.58 3.537 1.594.91 1.027 1.316 2.354 1.146 3.74-.159 1.278-1.044 2.532-2.366 3.359-1.328.827-2.452.953-3.875.452a3.12 3.12 0 00-2.578.214 3.158 3.158 0 00-1.546 2.081c-3.064 14.068-13.462 25.561-27.14 29.992l-1.389.455c-3.912 1.268-7.91 1.315-11.554.138-13.913-4.477-24.383-16.17-27.324-30.514zm25.395 36.506a23.983 23.983 0 007.381 1.149c2.671 0 5.378-.43 8.045-1.294l.803-.262v1.163c0 5.205-4.235 9.44-9.44 9.44-5.206 0-9.44-4.235-9.44-9.44v-1.799c.884.346 1.739.75 2.651 1.043zm60.281 63.689h-18.88v-15.733a3.145 3.145 0 00-3.147-3.147 3.145 3.145 0 00-3.146 3.147v15.733H85.362v-15.733a3.145 3.145 0 00-3.147-3.147 3.145 3.145 0 00-3.146 3.147v15.733H63.335v-22.736c0-10.414 6.002-19.873 15.289-24.095l23.494-10.677c2.221 5.998 7.95 10.308 14.711 10.308s12.49-4.31 14.71-10.309l12.211 5.548c-.088 1.061-.175 2.122-.175 3.188 0 16.991 11.283 31.386 26.747 36.112v12.661zm37.228-32.643c-2.676 8.026-15.171 15.337-26.215 15.337-17.35 0-31.466-14.117-31.466-31.467 0-9.461 4.182-18.8 11.185-24.98 4.954-4.373 10.875-6.696 16.935-6.696.983 0 1.97.061 2.956.184 12.313 1.54 12.732 7.593 13.312 15.97.431 6.242.919 13.315 7.219 18.039 5.632 4.225 7.676 8.807 6.074 13.613z" fill="#999"/><path d="M193.922 161.787c-5.135 0-9.311 4.176-9.311 9.311 0 5.131 4.176 9.307 9.311 9.307 5.134 0 9.311-4.176 9.311-9.307 0-5.135-4.176-9.311-9.311-9.311zm0 12.325a3.02 3.02 0 01-3.018-3.014 3.024 3.024 0 013.018-3.018 3.023 3.023 0 013.017 3.018 3.02 3.02 0 01-3.017 3.014zm-18.88-42.716c-4.542 0-8.236 3.693-8.236 8.235s3.694 8.236 8.236 8.236c4.542 0 8.235-3.694 8.235-8.236 0-4.542-3.693-8.235-8.235-8.235zm0 10.177a1.947 1.947 0 01-1.943-1.942c0-1.07.873-1.942 1.943-1.942s1.942.872 1.942 1.942c0 1.07-.872 1.942-1.942 1.942zm-5.924 15.365c0-4.542-3.694-8.236-8.236-8.236-4.542 0-8.236 3.693-8.236 8.236 0 4.542 3.694 8.235 8.236 8.235 4.542 0 8.236-3.693 8.236-8.235zm-8.236 1.942a1.947 1.947 0 01-1.942-1.942c0-1.07.872-1.943 1.942-1.943 1.07 0 1.942.873 1.942 1.943a1.946 1.946 0 01-1.942 1.942zm11.013 10.275c-4.541 0-8.235 3.694-8.235 8.236 0 4.542 3.693 8.235 8.235 8.235s8.236-3.693 8.236-8.235-3.694-8.236-8.236-8.236zm0 10.178a1.946 1.946 0 01-1.942-1.942c0-1.07.872-1.942 1.942-1.942 1.07 0 1.943.872 1.943 1.942 0 1.07-.873 1.942-1.943 1.942zM48.303 136.131a83.175 83.175 0 01-1.754-1.77l-.002-.002v-.001c-2.413-2.523-4.02-4.822-4.02-7.83 0-3.998-2.074-5.095-3.313-5.392-4.907-1.242-10.653 8.389-13.64 14.212-1.795 3.499-3.937 8.398-3.937 11.861 0 6.106 3.368 11.39 8.307 14.25l-1.82 40.423c-.148 3.266.996 6.426 3.137 8.663 1.869 1.957 4.32 3.033 6.902 3.033 2.58 0 5.033-1.076 6.901-3.033 2.142-2.237 3.285-5.396 3.137-8.663l-1.82-40.423c4.94-2.861 8.308-8.145 8.308-14.25 0-4.754-3.394-8.115-6.386-11.078zm-11.739-6.509c.584 2.634 1.865 4.825 3.35 6.711-1.113.827-2.21 1.263-3.282 1.306-1.444-.006-3.011-.673-4.29-1.598 1.524-2.707 3.021-4.891 4.222-6.419zm5.35 72.543c.071 1.557-.44 3.03-1.398 4.031-.473.498-1.268 1.088-2.353 1.088-1.085 0-1.881-.59-2.354-1.088-.959-1.001-1.469-2.474-1.398-4.031l1.74-38.634c.666.082 1.323.204 2.012.204.689 0 1.345-.121 2.012-.204l1.74 38.634zm-3.752-44.723c-5.642 0-10.233-4.591-10.233-10.233 0-.892.467-2.789 1.62-5.523 2.266 1.45 4.571 2.25 6.898 2.25.142 0 .282-.004.427-.01 2.577-.099 5.035-1.111 7.342-2.985 2.274 2.259 4.179 4.24 4.179 6.267 0 5.643-4.591 10.234-10.233 10.234z" fill="#999"/></svg>