<svg width="23" height="23" viewBox="0 0 23 23" fill="none" xmlns="http://www.w3.org/2000/svg">
<path d="M16.875 13.751C16.625 13.626 15.3125 12.876 15.0625 12.8135C14.8125 12.6885 14.625 12.6885 14.4375 12.9385C14.25 13.1885 13.6875 13.8135 13.5625 13.9385C13.375 14.126 13.25 14.126 13 14.001C12.75 13.876 11.875 13.5635 10.875 12.5635C10.125 11.8135 9.5625 10.9385 9.4375 10.626C9.3125 10.376 9.4375 10.1885 9.5625 10.0635C9.6875 9.93848 9.8125 9.75098 10 9.62598C10.1875 9.50098 10.1875 9.37598 10.3125 9.18848C10.4375 9.00098 10.375 8.87598 10.3125 8.68848C10.25 8.50098 9.75 7.18848 9.5625 6.62598C9.375 6.06348 9.125 6.18848 9 6.12598C8.8125 6.12598 8.6875 6.06348 8.5 6.06348C8.25 6.06348 7.9375 6.18848 7.75 6.37598C7.5 6.62598 6.75 7.25098 6.75 8.56348C6.75 9.87598 7.625 11.251 7.75 11.376C7.875 11.5635 9.5 14.4385 12.1875 15.626C14.875 16.8135 14.875 16.4385 15.375 16.4385C15.875 16.4385 17 15.8135 17.25 15.251C17.5 14.626 17.5 14.0635 17.4375 14.001C17.3125 14.001 17.125 13.9385 16.875 13.751ZM11.875 20.1885C10.125 20.1885 8.5 19.6885 7.0625 18.751L3.6875 19.8135L4.8125 16.5635C3.75 15.0635 3.125 13.251 3.125 11.376C3.125 6.50098 7.0625 2.56348 11.9375 2.56348C16.8125 2.56348 20.6875 6.50098 20.6875 11.376C20.6875 16.251 16.75 20.1885 11.875 20.1885ZM11.875 0.813477C6.0625 0.813477 1.3125 5.56348 1.3125 11.376C1.3125 13.3135 1.8125 15.1885 2.8125 16.8135L0.875 22.501L6.75 20.626C8.3125 21.501 10.0625 21.9385 11.875 21.9385C17.6875 21.9385 22.4375 17.1885 22.4375 11.376C22.4375 5.56348 17.75 0.813477 11.875 0.813477Z" fill="white"/>
</svg>
